<?xml version="1.0" standalone="no"?>
<!DOCTYPE svg PUBLIC "-//W3C//DTD SVG 20010904//EN"
 "http://www.w3.org/TR/2001/REC-SVG-20010904/DTD/svg10.dtd">
<svg version="1.0" xmlns="http://www.w3.org/2000/svg"
 width="180.000000pt" height="180.000000pt" viewBox="0 0 180.000000 180.000000"
 preserveAspectRatio="xMidYMid meet">
<metadata>
Created by potrace 1.14, written by Peter Selinger 2001-2017
</metadata>
<g transform="translate(0.000000,180.000000) scale(0.100000,-0.100000)"
fill="#000000" stroke="none">
<path d="M422 1739 c-61 -12 -137 -56 -202 -116 -40 -37 -51 -53 -40 -57 8 -3
107 -28 220 -56 113 -28 220 -61 238 -72 48 -30 89 -91 102 -153 l11 -53 71
-16 c83 -19 95 -19 100 -6 2 6 172 -32 418 -94 228 -57 418 -102 423 -99 26
15 -10 198 -58 293 -124 247 -357 263 -670 47 -91 -64 -103 -63 -136 9 -117
259 -307 407 -477 373z"/>
<path d="M93 1465 c-3 -9 -3 -18 0 -21 11 -11 398 -104 408 -99 21 13 7 35
-28 44 -85 22 -363 91 -368 91 -3 0 -8 -7 -12 -15z"/>
<path d="M50 1331 c0 -22 15 -27 258 -87 115 -28 156 -34 165 -25 7 7 7 14 1
20 -7 8 -398 111 -419 111 -3 0 -5 -9 -5 -19z"/>
<path d="M40 1190 c0 -11 3 -20 8 -20 4 -1 92 -22 195 -48 178 -45 189 -47
198 -30 7 13 6 20 -3 23 -25 8 -377 95 -388 95 -5 0 -10 -9 -10 -20z"/>
<path d="M682 1050 c-18 -22 -51 -49 -73 -60 -74 -38 -107 -36 -337 20 -117
29 -215 50 -217 48 -6 -6 24 -121 33 -130 4 -3 90 -27 192 -53 235 -59 250
-64 250 -80 0 -8 17 -19 38 -24 20 -5 56 -15 80 -21 l43 -11 40 45 c53 60 110
81 214 80 256 -4 453 -143 474 -333 l6 -56 105 106 c104 105 181 212 164 228
-5 5 -169 48 -364 96 -425 104 -462 114 -455 125 7 12 -19 24 -80 39 -27 7
-57 14 -65 16 -9 3 -29 -12 -48 -35z"/>
<path d="M200 662 c0 -3 16 -35 36 -71 76 -139 252 -385 352 -493 l43 -46 52
17 c76 26 284 122 363 167 l69 39 -60 6 c-76 8 -134 24 -210 58 -105 48 -163
114 -179 203 -6 33 -12 39 -44 47 -137 37 -133 36 -141 22 -7 -11 -35 -6 -145
22 -75 19 -136 33 -136 29z"/>
</g>
</svg>
